<?xml version="1.0" encoding="UTF-8"?>
<!DOCTYPE svg PUBLIC "-//W3C//DTD SVG 1.1//EN" "http://www.w3.org/Graphics/SVG/1.1/DTD/svg11.dtd">
<!-- Creator: CorelDRAW 2017 -->
<svg xmlns="http://www.w3.org/2000/svg" xml:space="preserve" width="595px" height="595px" version="1.1" style="shape-rendering:geometricPrecision; text-rendering:geometricPrecision; image-rendering:optimizeQuality; fill-rule:evenodd; clip-rule:evenodd"
viewBox="0 0 26170 26170"
 xmlns:xlink="http://www.w3.org/1999/xlink">
 <defs>
  <style type="text/css">
   <![CDATA[
    .fil1 {fill:none}
    .fil0 {fill:white;fill-opacity:0.031373}
   ]]>
  </style>
 </defs>
 <g id="Layer_x0020_1">
  <metadata id="CorelCorpID_0Corel-Layer"/>
  <g id="_2600328789104">
   <g>
    <path class="fil0" d="M6207 19107l2323 -9895 4306 -6163 0 -26c0,-192 -7,-483 0,-685 7,-202 28,-313 53,-503 26,-190 64,-376 126,-550 62,-174 148,-337 237,-459 88,-123 178,-205 281,-288 104,-83 221,-166 269,-250 48,-85 27,-172 -133,-219 -160,-48 -460,-57 -760,-67 -4749,94 -8604,4008 -8604,8778l0 8614c0,3553 2139,6631 5194,8009 305,118 610,235 941,300 330,65 685,76 1029,-1 343,-77 675,-243 899,-443 224,-200 342,-435 402,-795 60,-360 64,-847 66,-1161l0 -113 -6628 -4081z"/>
    <path class="fil0" d="M19964 19107l-6630 4082c0,180 -1,375 -7,562 -7,202 -21,395 -47,585 -26,190 -64,376 -126,551 -62,174 -149,337 -236,459 -88,123 -178,205 -281,288 -104,83 -221,166 -269,251 -48,85 -27,171 133,219 160,48 460,57 760,67 4749,-94 8605,-4008 8605,-8778l0 -8614c0,-3553 -2139,-6631 -5194,-8009 -305,-118 -611,-235 -941,-300 -330,-65 -686,-76 -1029,1 -343,77 -675,243 -899,443 -224,200 -342,435 -402,795 -60,360 -64,846 -66,1161l-1 166c1445,2009 3055,4129 4305,6176l2324 9895z"/>
    <polygon class="fil0" points="13517,22494 18754,19270 14518,19270 "/>
    <polygon class="fil0" points="13085,22215 13999,19271 12171,19271 "/>
    <polygon class="fil0" points="12653,22494 11653,19271 7417,19271 "/>
    <polygon class="fil0" points="6971,18774 11498,18774 9915,13674 "/>
    <polygon class="fil0" points="10253,13090 12017,18774 14153,18774 15918,13089 13086,8184 "/>
    <polygon class="fil0" points="16255,13674 14672,18775 19199,18775 "/>
    <polygon class="fil0" points="16455,13030 19020,17472 17347,10156 "/>
    <polygon class="fil0" points="16117,12446 17110,9246 13334,3901 13334,7624 "/>
    <polygon class="fil0" points="10053,12445 12837,7624 12837,3900 9060,9246 "/>
    <polygon class="fil0" points="9716,13030 8824,10156 7150,17474 8814,14592 "/>
   </g>
   <rect class="fil1" width="26170" height="26170"/>
  </g>
 </g>
</svg>
