<?xml version="1.0" encoding="UTF-8"?>
<!DOCTYPE svg PUBLIC "-//W3C//DTD SVG 1.1//EN" "http://www.w3.org/Graphics/SVG/1.1/DTD/svg11.dtd">
<!-- Creator: CorelDRAW 2017 -->
<svg xmlns="http://www.w3.org/2000/svg" xml:space="preserve" width="500px" height="163px" version="1.1" style="shape-rendering:geometricPrecision; text-rendering:geometricPrecision; image-rendering:optimizeQuality; fill-rule:evenodd; clip-rule:evenodd"
viewBox="0 0 19098 6242"
 xmlns:xlink="http://www.w3.org/1999/xlink">
 <defs>
  <style type="text/css">
   <![CDATA[
    .fil2 {fill:none}
    .fil0 {fill:white}
    .fil1 {fill:white;fill-rule:nonzero}
   ]]>
  </style>
 </defs>
 <g id="Layer_x0020_1">
  <metadata id="CorelCorpID_0Corel-Layer"/>
  <g id="_2565516094352">
   <g>
    <path class="fil0" d="M454 4558l554 -2360 1027 -1470 0 -6c0,-46 -2,-115 0,-163 2,-48 7,-75 13,-120 6,-45 15,-90 30,-131 15,-42 35,-80 56,-109 21,-29 42,-49 67,-69 25,-20 53,-40 64,-60 12,-20 7,-41 -32,-52 -38,-11 -110,-14 -181,-16 -1133,23 -2052,956 -2052,2094l0 2055c0,848 510,1582 1239,1910 73,28 146,56 224,72 79,15 164,18 245,0 82,-18 161,-58 214,-106 54,-48 81,-104 96,-190 14,-86 15,-202 16,-277l0 -27 -1581 -973z"/>
    <path class="fil0" d="M3735 4557l-1581 974c0,43 0,89 -2,134 -2,48 -5,94 -11,139 -6,45 -15,90 -30,131 -15,42 -35,80 -56,110 -21,29 -42,49 -67,69 -25,20 -53,40 -64,60 -12,20 -7,41 32,52 38,12 110,14 181,16 1133,-23 2052,-956 2052,-2094l0 -2055c0,-848 -510,-1582 -1239,-1911 -73,-28 -146,-56 -224,-71 -79,-15 -164,-18 -245,0 -82,18 -161,58 -215,106 -53,48 -81,104 -96,190 -14,86 -15,202 -16,277l0 40c345,479 729,985 1027,1473l554 2360z"/>
    <polygon class="fil0" points="2197,5365 3446,4596 2436,4596 "/>
    <polygon class="fil0" points="2094,5299 2312,4597 1876,4597 "/>
    <polygon class="fil0" points="1991,5365 1753,4597 742,4597 "/>
    <polygon class="fil0" points="636,4478 1716,4478 1338,3262 "/>
    <polygon class="fil0" points="1419,3122 1839,4478 2349,4478 2770,3122 2094,1952 "/>
    <polygon class="fil0" points="2850,3262 2473,4478 3553,4478 "/>
    <polygon class="fil0" points="2898,3108 3510,4168 3111,2422 "/>
    <polygon class="fil0" points="2817,2969 3054,2205 2153,930 2153,1819 "/>
    <polygon class="fil0" points="1371,2968 2035,1818 2035,930 1134,2205 "/>
    <polygon class="fil0" points="1291,3108 1078,2422 679,4168 1075,3480 "/>
   </g>
   <path class="fil1" d="M6076 3173l-198 0c-152,0 -271,-44 -356,-131 -85,-87 -128,-209 -128,-366l0 -719c0,-157 43,-279 128,-366 85,-87 204,-131 356,-131l198 0c175,0 290,59 346,178l14 0 0 -779c0,-31 15,-47 44,-47l155 0c29,0 44,16 44,47l0 2267c0,31 -15,47 -44,47l-155 0c-29,0 -44,-16 -44,-47l0 -131 -14 0c-56,119 -171,178 -346,178zm359 -524l0 -665c0,-99 -27,-175 -81,-228 -54,-54 -131,-81 -232,-81l-205 0c-186,0 -279,97 -279,292l0 699c0,195 93,292 279,292l205 0c101,0 178,-27 232,-81 54,-54 81,-130 81,-228zm1343 524l-175 0c-155,0 -276,-44 -364,-131 -88,-87 -133,-209 -133,-366l0 -719c0,-157 44,-279 133,-366 88,-87 210,-131 364,-131l729 0c31,0 47,16 47,47l0 1619c0,31 -16,47 -47,47l-151 0c-31,0 -47,-16 -47,-47l0 -131 -13 0c-56,119 -170,178 -343,178zm356 -524l0 -944c0,-20 -11,-30 -34,-30l-470 0c-186,0 -279,97 -279,292l0 699c0,195 93,292 279,292l191 0c101,0 178,-27 232,-81 54,-54 81,-130 81,-228zm1609 524l-403 0c-155,0 -276,-44 -364,-131 -88,-87 -133,-209 -133,-366l0 -1165c0,-157 44,-279 133,-366 88,-87 210,-131 364,-131l403 0c155,0 276,44 364,131 88,87 133,209 133,366l0 165c0,31 -16,47 -47,47l-151 0c-31,0 -47,-16 -47,-47l0 -155c0,-195 -94,-292 -282,-292l-346 0c-186,0 -279,97 -279,292l0 1145c0,195 93,292 279,292l346 0c188,0 282,-97 282,-292l0 -155c0,-31 16,-47 47,-47l151 0c31,0 47,16 47,47l0 165c0,157 -44,279 -133,366 -88,87 -210,131 -364,131zm1555 0l-175 0c-155,0 -276,-44 -364,-131 -88,-87 -133,-209 -133,-366l0 -719c0,-157 44,-279 133,-366 89,-87 210,-131 364,-131l729 0c31,0 47,16 47,47l0 1619c0,31 -16,47 -47,47l-151 0c-31,0 -47,-16 -47,-47l0 -131 -14 0c-56,119 -170,178 -343,178zm356 -524l0 -944c0,-20 -11,-30 -34,-30l-470 0c-186,0 -279,97 -279,292l0 699c0,195 93,292 279,292l191 0c101,0 178,-27 232,-81 54,-54 81,-130 81,-228zm1138 -1189l296 0c34,0 50,15 50,44l0 124c0,31 -17,47 -50,47l-296 0c-20,0 -30,10 -30,30l0 1420c0,31 -17,47 -50,47l-148 0c-31,0 -47,-16 -47,-47l0 -1420c0,-20 -11,-30 -34,-30l-198 0c-31,0 -47,-16 -47,-47l0 -124c0,-29 16,-44 47,-44l198 0c22,0 34,-10 34,-30l0 -124c0,-159 39,-281 118,-366 78,-85 193,-128 343,-128l114 0c31,0 47,15 47,44l0 124c0,31 -16,47 -47,47l-84 0c-92,0 -156,23 -191,69 -36,46 -54,119 -54,220l0 114c0,20 10,30 30,30zm1394 -648l202 0c16,0 26,5 30,14 5,9 2,20 -7,34l-292 353c-22,22 -45,34 -67,34l-111 0c-31,0 -38,-16 -20,-47l195 -343c13,-29 37,-44 71,-44zm420 2361l-712 0c-155,0 -276,-44 -364,-131 -88,-87 -133,-209 -133,-366l0 -719c0,-157 44,-279 133,-366 89,-87 210,-131 364,-131l282 0c154,0 275,44 363,131 87,87 131,209 131,366l0 427c0,34 -16,50 -47,50l-950 0c-22,0 -34,10 -34,30l0 205c0,195 94,292 282,292l685 0c31,0 47,16 47,47l0 121c0,29 -16,44 -47,44zm-934 -917l725 0c22,0 34,-11 34,-34l0 -259c0,-193 -94,-289 -282,-289l-228 0c-188,0 -282,96 -282,289l0 259c0,22 11,34 34,34z"/>
   <path class="fil1" d="M6418 3692l117 0c15,0 22,9 22,26l0 1344c0,17 -7,26 -22,26l-63 0c-16,0 -24,-9 -24,-26l0 -1203 -9 0 -384 901c-9,16 -20,24 -33,24l-72 0c-14,0 -25,-8 -30,-24l-391 -903 -9 0 0 1205c0,17 -7,26 -22,26l-63 0c-14,0 -22,-9 -22,-26l0 -1344c0,-17 7,-26 22,-26l117 0c10,0 17,4 20,13l408 953 9 0 408 -953c3,-9 9,-13 20,-13zm1201 1396l-671 0c-15,0 -22,-9 -22,-26l0 -1344c0,-17 7,-26 22,-26l671 0c17,0 26,8 26,24l0 50c0,16 -9,24 -26,24l-563 0c-15,0 -22,7 -22,20l0 500c0,13 7,20 22,20l502 0c16,0 24,8 24,24l0 50c0,16 -8,24 -24,24l-502 0c-15,0 -22,7 -22,20l0 526c0,13 7,20 22,20l563 0c17,0 26,8 26,24l0 50c0,16 -9,24 -26,24zm1355 -1396l117 0c15,0 22,9 22,26l0 1344c0,17 -7,26 -22,26l-63 0c-16,0 -24,-9 -24,-26l0 -1203 -9 0 -384 901c-9,16 -20,24 -33,24l-72 0c-15,0 -25,-8 -30,-24l-391 -903 -9 0 0 1205c0,17 -7,26 -22,26l-63 0c-15,0 -22,-9 -22,-26l0 -1344c0,-17 7,-26 22,-26l117 0c10,0 17,4 20,13l408 953 9 0 408 -953c3,-9 9,-13 20,-13zm639 1301l404 0c138,0 206,-70 206,-209l0 -150c0,-138 -75,-206 -226,-206l-384 0c-15,0 -22,6 -22,17l0 528c0,13 7,20 22,20zm0 -660l382 0c68,0 121,-18 157,-54 37,-36 55,-88 55,-154l0 -128c0,-139 -69,-209 -206,-209l-389 0c-15,0 -22,7 -22,20l0 506c0,13 7,20 22,20zm-130 730l0 -1344c0,-17 7,-26 22,-26l506 0c94,0 169,27 224,80 55,54 83,127 83,222l0 132c0,132 -62,216 -187,254 54,3 101,28 141,74 41,46 61,106 61,180l0 152c0,94 -28,168 -83,222 -55,54 -130,80 -224,80l-521 0c-15,0 -22,-9 -22,-26zm1879 26l-671 0c-14,0 -22,-9 -22,-26l0 -1344c0,-17 7,-26 22,-26l671 0c17,0 26,8 26,24l0 50c0,16 -9,24 -26,24l-563 0c-15,0 -22,7 -22,20l0 500c0,13 7,20 22,20l502 0c16,0 24,8 24,24l0 50c0,16 -8,24 -24,24l-502 0c-15,0 -22,7 -22,20l0 526c0,13 7,20 22,20l563 0c17,0 26,8 26,24l0 50c0,16 -9,24 -26,24zm437 0l-63 0c-15,0 -22,-9 -22,-26l0 -1344c0,-17 7,-26 22,-26l495 0c94,0 169,28 224,83 55,55 83,130 83,226l0 206c0,81 -21,148 -62,200 -41,52 -97,85 -168,100l0 9 258 547c9,17 4,26 -15,26l-67 0c-19,0 -32,-9 -39,-26l-256 -547 -343 0c-15,0 -22,7 -22,20l0 528c0,17 -8,26 -24,26zm46 -667l376 0c67,0 118,-18 154,-55 36,-37 54,-89 54,-157l0 -204c0,-68 -18,-121 -54,-159 -36,-38 -88,-57 -154,-57l-376 0c-15,0 -22,7 -22,20l0 593c0,13 7,20 22,20zm2165 667l-274 0c-94,0 -168,-28 -223,-83 -54,-55 -81,-130 -81,-226l0 -780c0,-96 27,-171 81,-226 54,-55 129,-83 223,-83l274 0c94,0 168,28 223,83 54,55 81,130 81,226l0 106c0,17 -8,26 -24,26l-61 0c-16,0 -24,-9 -24,-26l0 -102c0,-69 -18,-123 -53,-160 -36,-37 -87,-55 -153,-55l-254 0c-67,0 -117,19 -152,57 -35,38 -52,91 -52,159l0 771c0,68 17,121 52,159 35,38 85,57 152,57l254 0c67,0 118,-19 153,-55 36,-37 53,-90 53,-160l0 -102c0,-17 8,-26 24,-26l61 0c16,0 24,9 24,26l0 106c0,96 -27,171 -81,226 -54,55 -129,83 -223,83zm1333 0l-691 0c-15,0 -22,-9 -22,-26l0 -1344c0,-17 7,-26 22,-26l63 0c16,0 24,9 24,26l0 1249c0,13 7,20 22,20l582 0c17,0 26,8 26,24l0 54c0,16 -9,24 -26,24zm387 -1370l0 1344c0,17 -8,26 -24,26l-63 0c-15,0 -22,-9 -22,-26l0 -1344c0,-17 7,-26 22,-26l63 0c16,0 24,9 24,26zm1073 1370l-671 0c-15,0 -22,-9 -22,-26l0 -1344c0,-17 7,-26 22,-26l671 0c17,0 26,8 26,24l0 50c0,16 -9,24 -26,24l-563 0c-15,0 -22,7 -22,20l0 500c0,13 7,20 22,20l502 0c16,0 24,8 24,24l0 50c0,16 -8,24 -24,24l-502 0c-15,0 -22,7 -22,20l0 526c0,13 7,20 22,20l563 0c17,0 26,8 26,24l0 50c0,16 -9,24 -26,24zm437 0l-63 0c-15,0 -22,-9 -22,-26l0 -1344c0,-17 7,-26 22,-26l59 0c13,0 22,4 26,13l667 1147 9 0 0 -1134c0,-17 8,-26 24,-26l61 0c16,0 24,9 24,26l0 1344c0,17 -8,26 -24,26l-50 0c-13,0 -25,-8 -35,-24l-665 -1138 -9 0 0 1136c0,17 -8,26 -24,26zm1477 0l-63 0c-16,0 -24,-9 -24,-26l0 -1253c0,-13 -7,-20 -22,-20l-315 0c-17,0 -26,-8 -26,-24l0 -50c0,-16 9,-24 26,-24l782 0c17,0 26,8 26,24l0 50c0,16 -9,24 -26,24l-315 0c-14,0 -22,7 -22,20l0 1253c0,17 -7,26 -22,26z"/>
  </g>
  <rect id="icon-signet-eosdactoolkit-175x48" class="fil2" width="19098" height="6242"/>
 </g>
</svg>
