<?xml version="1.0" encoding="UTF-8"?>
<!DOCTYPE svg PUBLIC "-//W3C//DTD SVG 1.1//EN" "http://www.w3.org/Graphics/SVG/1.1/DTD/svg11.dtd">
<!-- Creator: CorelDRAW 2017 -->
<svg xmlns="http://www.w3.org/2000/svg" xml:space="preserve" width="595px" height="595px" version="1.1" style="shape-rendering:geometricPrecision; text-rendering:geometricPrecision; image-rendering:optimizeQuality; fill-rule:evenodd; clip-rule:evenodd"
viewBox="0 0 39115 39115"
 xmlns:xlink="http://www.w3.org/1999/xlink">
 <defs>
  <style type="text/css">
   <![CDATA[
    .fil1 {fill:none}
    .fil0 {fill:white}
   ]]>
  </style>
 </defs>
 <g id="Layer_x0020_1">
  <metadata id="CorelCorpID_0Corel-Layer"/>
  <g id="_2600332434288">
   <path class="fil0" d="M10703 27310l2991 -12739 5544 -7934 0 -34c0,-247 -9,-622 0,-882 9,-260 36,-403 69,-648 33,-244 82,-484 162,-709 80,-224 191,-433 304,-591 113,-158 229,-264 362,-371 133,-107 284,-213 346,-322 62,-109 35,-221 -171,-283 -206,-62 -592,-74 -978,-86 -6113,121 -11077,5159 -11077,11301l0 11090c0,4575 2754,8537 6686,10311 393,151 786,303 1211,386 425,83 882,98 1324,-1 442,-99 868,-312 1157,-570 289,-258 440,-560 518,-1024 78,-464 82,-1090 84,-1495l0 -145 -8533 -5254z"/>
   <path class="fil0" d="M28413 27310l-8535 5255c0,232 -1,483 -9,724 -9,260 -27,508 -60,753 -33,245 -82,484 -162,709 -80,224 -191,433 -304,591 -113,158 -229,264 -362,371 -133,107 -284,213 -346,322 -62,109 -35,221 171,283 206,62 592,74 978,86 6114,-121 11077,-5159 11077,-11301l0 -11090c0,-4575 -2754,-8537 -6686,-10311 -393,-151 -786,-303 -1211,-386 -425,-83 -882,-98 -1324,1 -442,99 -869,312 -1157,570 -289,258 -440,560 -518,1024 -78,464 -82,1090 -84,1495l-1 214c1860,2587 3933,5316 5542,7951l2992 12738z"/>
   <polygon class="fil0" points="20114,31671 26856,27520 21402,27520 "/>
   <polygon class="fil0" points="19558,31312 20734,27521 18381,27521 "/>
   <polygon class="fil0" points="19001,31671 17713,27521 12261,27521 "/>
   <polygon class="fil0" points="11686,26881 17515,26881 15477,20315 "/>
   <polygon class="fil0" points="15912,19564 18183,26881 20933,26881 23204,19563 19558,13248 "/>
   <polygon class="fil0" points="23638,20316 21600,26882 27429,26882 "/>
   <polygon class="fil0" points="23896,19486 27198,25205 25044,15786 "/>
   <polygon class="fil0" points="23461,18734 24739,14615 19878,7734 19878,12528 "/>
   <polygon class="fil0" points="15654,18734 19238,12526 19238,7734 14376,14615 "/>
   <polygon class="fil0" points="15220,19487 14071,15786 11917,25207 14059,21497 "/>
  </g>
  <rect id="ArtBoard1" class="fil1" width="39115" height="39115"/>
 </g>
</svg>
